<?xml version="1.0" encoding="UTF-8" standalone="no"?>
<svg
   xmlns:dc="http://purl.org/dc/elements/1.1/"
   xmlns:cc="http://creativecommons.org/ns#"
   xmlns:rdf="http://www.w3.org/1999/02/22-rdf-syntax-ns#"
   xmlns:svg="http://www.w3.org/2000/svg"
   xmlns="http://www.w3.org/2000/svg"
   xmlns:sodipodi="http://sodipodi.sourceforge.net/DTD/sodipodi-0.dtd"
   xmlns:inkscape="http://www.inkscape.org/namespaces/inkscape"
   data-name="Layer 1"
   viewBox="0 0 100 125"
   x="0px"
   y="0px"
   version="1.1"
   id="svg10"
   sodipodi:docname="family.svg"
   inkscape:version="0.92.1 r15371">
  <metadata
     id="metadata16">
    <rdf:RDF>
      <cc:Work
         rdf:about="">
        <dc:format>image/svg+xml</dc:format>
        <dc:type
           rdf:resource="http://purl.org/dc/dcmitype/StillImage" />
        <dc:title>Artboard 2</dc:title>
      </cc:Work>
    </rdf:RDF>
  </metadata>
  <defs
     id="defs14" />
  <sodipodi:namedview
     pagecolor="#ffffff"
     bordercolor="#666666"
     borderopacity="1"
     objecttolerance="10"
     gridtolerance="10"
     guidetolerance="10"
     inkscape:pageopacity="0"
     inkscape:pageshadow="2"
     inkscape:window-width="640"
     inkscape:window-height="480"
     id="namedview12"
     showgrid="false"
     inkscape:zoom="1.888"
     inkscape:cx="50"
     inkscape:cy="62.5"
     inkscape:window-x="0"
     inkscape:window-y="0"
     inkscape:window-maximized="0"
     inkscape:current-layer="svg10" />
  <title
     id="title2">Artboard 2</title>
  <path
     d="m 10.090339,28.101864 a 8.94,8.94 0 1 1 8.94,8.94 8.94,8.94 0 0 1 -8.94,-8.94 z m -5.94,44.61 a 2.87,2.87 0 0 0 1.21,-0.1 l -2.69,11.21 a 2,2 0 0 0 1.94,2.4 h 7.94 l 1.56,17.429996 a 2.93,2.93 0 0 0 2.92,2.6 h 4 a 2.93,2.93 0 0 0 2.92,-2.6 l 1.52,-17.419996 h 8 a 2,2 0 0 0 1.94,-2.4 l -2.71,-11.2 a 2.87,2.87 0 0 0 1.21,0.1 3.1,3.1 0 0 0 2.65,-3.62 l -5.62,-24.08 a 7.28,7.28 0 0 0 -6,-5.55 1.89,1.89 0 0 0 -1.5,0.43 l -2.4,2 a 3.05,3.05 0 0 1 -4,0 l -2.4,-2 a 1.89,1.89 0 0 0 -1.49,-0.43 7.28,7.28 0 0 0 -6,5.55 l -5.68,24.08 a 3.1,3.1 0 0 0 2.68,3.6 z m 51.13,-35.63 a 8.93,8.93 0 1 0 -8.93,-8.94 8.94,8.94 0 0 0 8.93,8.94 z m -13.81,27.28 a 6.42,6.42 0 0 0 4.19,5.35 l 3.7,33.999996 a 2.93,2.93 0 0 0 2.91,2.6 h 5.86 a 2.93,2.93 0 0 0 2.91,-2.6 l 3.71,-33.999996 a 6.41,6.41 0 0 0 4.32,-5.34 l 2.2,-16.53 a 7.56,7.56 0 0 0 -7.51,-8.41 h -3.1 a 1.89,1.89 0 0 0 -1,0.43 l -2.4,2 a 3.05,3.05 0 0 1 -4,0 l -2.4,-2 a 1.89,1.89 0 0 0 -1,-0.43 h -3.06 a 7.55,7.55 0 0 0 -7.51,8.41 z m 44.31,-1.75 a 6.52,6.52 0 1 0 -6.52,-6.53 6.53,6.53 0 0 0 6.52,6.53 z m -10.07,19.92 a 4.68,4.68 0 0 0 3,3.87 l 2.7,17.999996 a 2.14,2.14 0 0 0 2.13,1.9 h 4.33 a 2.14,2.14 0 0 0 2.13,-1.9 l 2.7,-17.929996 a 4.68,4.68 0 0 0 3.15,-3.9 l 1.62,-12.11 a 5.52,5.52 0 0 0 -5.48,-6.14 h -2.28 a 1.38,1.38 0 0 0 -0.73,0.32 l -1.75,1.49 a 2.23,2.23 0 0 1 -2.89,0 l -1.75,-1.49 a 1.38,1.38 0 0 0 -0.73,-0.32 h -2.27 a 5.52,5.52 0 0 0 -5.48,6.14 z"
     id="path4"
     inkscape:connector-curvature="0" />
</svg>
